<svg width="512" height="512" viewBox="0 0 512 512" fill="none" xmlns="http://www.w3.org/2000/svg">
  <!-- Outer ring with gradient effect -->
  <defs>
    <linearGradient id="outerRing" x1="0%" y1="0%" x2="100%" y2="100%">
      <stop offset="0%" style="stop-color:#64ffda;stop-opacity:1" />
      <stop offset="50%" style="stop-color:#0a192f;stop-opacity:1" />
      <stop offset="100%" style="stop-color:#64ffda;stop-opacity:1" />
    </linearGradient>
    <linearGradient id="innerRing" x1="0%" y1="0%" x2="100%" y2="100%">
      <stop offset="0%" style="stop-color:#112240;stop-opacity:1" />
      <stop offset="100%" style="stop-color:#233554;stop-opacity:1" />
    </linearGradient>
    <linearGradient id="letterK" x1="0%" y1="0%" x2="100%" y2="100%">
      <stop offset="0%" style="stop-color:#64ffda;stop-opacity:1" />
      <stop offset="100%" style="stop-color:#ccd6f6;stop-opacity:1" />
    </linearGradient>
  </defs>
  
  <!-- Background circle with subtle shadow -->
  <circle cx="256" cy="256" r="248" fill="#0a192f" opacity="0.3"/>
  
  <!-- Outer ring - elegant border -->
  <circle cx="256" cy="256" r="240" fill="none" stroke="url(#outerRing)" stroke-width="12" stroke-linecap="round"/>
  
  <!-- Inner ring for depth -->
  <circle cx="256" cy="256" r="200" fill="url(#innerRing)" stroke="#64ffda" stroke-width="2" opacity="0.8"/>
  
  <!-- Letter K with elegant styling -->
  <path d="M 160 140 L 160 372 L 200 372 L 200 280 L 280 372 L 320 372 L 240 260 L 320 140 L 280 140 L 200 240 L 200 140 Z" fill="url(#letterK)" stroke="#64ffda" stroke-width="1" opacity="0.9"/>
  
  <!-- Elegant accent elements -->
  <circle cx="120" cy="120" r="8" fill="#64ffda" opacity="0.7"/>
  <circle cx="392" cy="120" r="8" fill="#64ffda" opacity="0.7"/>
  <circle cx="120" cy="392" r="8" fill="#64ffda" opacity="0.7"/>
  <circle cx="392" cy="392" r="8" fill="#64ffda" opacity="0.7"/>
  
  <!-- Subtle connecting lines representing automation -->
  <line x1="128" y1="120" x2="384" y2="120" stroke="#64ffda" stroke-width="1.5" opacity="0.4" stroke-linecap="round"/>
  <line x1="128" y1="392" x2="384" y2="392" stroke="#64ffda" stroke-width="1.5" opacity="0.4" stroke-linecap="round"/>
  
  <!-- Inner glow effect -->
  <circle cx="256" cy="256" r="180" fill="none" stroke="#64ffda" stroke-width="0.5" opacity="0.2"/>
</svg> 